:SAMPLES-PER-SECOND 30
:FULLY-SPECIFIED
:DEGREES
1
root  72.1055 39.5045 -0.239792 -123.106 -88.64 121.781
RightUpLeg  -1.43087 -7.88091 -3.25426
RightLeg  5.67165 0.638491 0.449397
RightFoot  -3.4437 -0.0265835 -0.0255741
RightToes  -8.14909e-010 0 -3.6325e-017
Spine  4.30152 0.504468 1.96632
Spine1  0.0972446 0.777296 -0.815086
HEad  -1.89183 -4.9445 -1.33811
LeftShoulder1  -0.00758718 3.53398 -17.5885
LeftArm  -18.3009 12.8451 -19.2869
LeftForeArm  20.7096 -14.3623 -1.46985
LeftHand  -0.0224446 5.99091 1.593
RightShoulder  -0.331724 -4.75918 19.3199
RightArm  -12.9549 -6.16591 15.3727
RightForeArm  10.673 15.5385 -0.468678
RightHand  0.0218174 5.69441 -0.122951
LeftUpLeg  -0.543679 5.7566 1.79944
LeftLeg  5.68541 -0.847863 0.192761
LeftFoot  -4.20057 -0.0120981 0.550685
LeftToes  1.648e-009 -9.21574e-011 2.55256e-011
2
root  72.0878 39.5061 -0.253248 -123.986 -88.617 122.704
RightUpLeg  -1.4368 -7.87331 -3.24192
RightLeg  5.6425 0.65669 0.463411
RightFoot  -3.43495 -0.0221498 -0.0944171
RightToes  -8.14909e-010 0 -3.6325e-017
Spine  4.26318 0.402176 1.95836
Spine1  0.373119 0.678583 -0.851475
HEad  -2.88457 -4.44514 -1.45893
LeftShoulder1  -0.0968818 3.89835 -17.9287
LeftArm  -17.808 12.4259 -20.1786
LeftForeArm  20.6179 -13.6884 -1.49913
LeftHand  -0.027266 5.51544 1.26436
RightShoulder  -0.360756 -4.85467 19.6624
RightArm  -12.2627 -6.16397 16.4169
RightForeArm  10.4782 15.0316 -0.652509
RightHand  -0.024867 4.46932 -0.570671
LeftUpLeg  -0.554287 5.77105 1.80494
LeftLeg  5.65653 -0.813365 0.198446
LeftFoot  -4.08807 -0.0305052 0.83677
LeftToes  1.648e-009 -9.21574e-011 2.55256e-011
3
root  72.0615 39.5016 -0.265929 -124.301 -88.5742 123.072
RightUpLeg  -1.53657 -7.87227 -3.2449
RightLeg  5.81392 0.6691 0.454143
RightFoot  -3.55967 -0.0181698 -0.156218
RightToes  -8.14909e-010 0 -3.6325e-017
Spine  4.2278 0.360352 1.75902
Spine1  0.65458 0.576994 -0.524696
HEad  -3.86631 -4.51652 -1.68036
LeftShoulder1  -0.102826 3.91153 -18.5159
LeftArm  -17.8261 12.615 -21.4258
LeftForeArm  21.439 -13.3983 -1.43218
LeftHand  -0.0288162 5.29008 0.634818
RightShoulder  -0.346197 -4.78248 20.0226
RightArm  -11.9304 -6.81272 17.6511
RightForeArm  10.38 14.6384 -0.864288
RightHand  0.00783744 4.57009 -0.204554
LeftUpLeg  -0.563931 5.63689 1.73477
LeftLeg  5.64732 -0.664507 0.305323
LeftFoot  -4.12116 -0.0292842 0.817792
LeftToes  1.648e-009 -9.21574e-011 2.55256e-011
4
root  72.0106 39.5054 -0.288828 -127.631 -88.4315 126.521
RightUpLeg  -1.59276 -7.84565 -3.25393
RightLeg  5.78413 0.830047 0.436677
RightFoot  -3.63899 -0.0216423 -0.102298
RightToes  -8.14909e-010 0 -3.6325e-017
Spine  3.91785 0.338095 1.6446
Spine1  1.26213 0.53184 -0.425887
HEad  -5.31749 -4.19088 -2.10889
LeftShoulder1  -0.141278 4.04812 -19.4226
LeftArm  -17.7618 12.8872 -22.3964
LeftForeArm  21.0103 -13.3099 -1.45875
LeftHand  -0.0289255 5.19807 1.01852
RightShoulder  -0.386811 -4.92351 20.1766
RightArm  -11.732 -7.82577 19.1988
RightForeArm  10.0276 14.8771 -0.67634
RightHand  -0.0106826 3.83934 -0.395507
LeftUpLeg  -0.546681 5.70895 1.73399
LeftLeg  5.57868 -0.55256 0.251775
LeftFoot  -4.1573 -0.0215339 0.697335
LeftToes  1.648e-009 -9.21574e-011 2.55256e-011
5
root  71.9653 39.5044 -0.307036 -127.141 -88.4101 126.129
RightUpLeg  -1.68902 -7.90171 -3.26995
RightLeg  5.91569 0.871243 0.495937
RightFoot  -3.75353 -0.0154577 -0.198334
RightToes  -8.14909e-010 0 -3.6325e-017
Spine  3.99502 0.358875 1.90161
Spine1  1.329 0.624811 -0.758696
HEad  -6.49488 -3.67275 -2.07928
LeftShoulder1  -0.13974 4.03547 -19.6849
LeftArm  -18.3144 13.7531 -24.2337
LeftForeArm  21.8036 -13.881 -1.3949
LeftHand  -0.030433 4.87373 1.12059
RightShoulder  -0.524982 -5.35701 21.5094
RightArm  -11.6179 -8.57841 20.0628
RightForeArm  10.1913 14.6995 -0.791567
RightHand  -0.0159855 4.1817 -0.477207
LeftUpLeg  -0.532926 5.61415 1.69742
LeftLeg  5.4738 -0.475149 0.325059
LeftFoot  -4.21725 -0.0100548 0.51893
LeftToes  1.648e-009 -9.21574e-011 2.55256e-011
6
root  71.9077 39.4982 -0.34695 -130.212 -88.3097 129.357
RightUpLeg  -1.84932 -7.85 -3.20514
RightLeg  6.06998 0.901431 0.507828
RightFoot  -3.96589 -0.0119565 -0.252704
RightToes  -8.14909e-010 0 -3.6325e-017
Spine  3.9842 0.463143 1.91055
Spine1  1.37512 0.724886 -0.738253
HEad  -7.58996 -4.19977 -2.39763
LeftShoulder1  -0.249401 4.43244 -20.3598
LeftArm  -19.1796 13.9328 -26.2204
LeftForeArm  22.3621 -13.8173 -1.12452
LeftHand  -0.0310303 4.85013 1.28429
RightShoulder  -0.614238 -5.62542 22.1402
RightArm  -11.2245 -10.2057 21.3365
RightForeArm  10.5919 15.433 -0.315209
RightHand  -0.0344212 3.62996 -0.705332
LeftUpLeg  -0.566836 5.64947 1.74437
LeftLeg  5.42422 -0.372549 0.326757
LeftFoot  -4.25386 -0.0113429 0.538949
LeftToes  1.648e-009 -9.21574e-011 2.55256e-011
7
root  71.8509 39.5027 -0.410173 -140.253 -88.1244 139.533
RightUpLeg  -1.95712 -7.52513 -2.88275
RightLeg  6.05779 0.900085 0.34256
RightFoot  -3.95976 -0.00365649 -0.381606
RightToes  -8.14909e-010 0 -3.6325e-017
Spine  4.01301 0.566738 2.13682
Spine1  1.5929 0.871957 -0.95197
HEad  -8.91936 -3.60128 -2.63212
LeftShoulder1  -0.395322 4.94524 -20.9209
LeftArm  -19.2675 14.471 -28.1353
LeftForeArm  22.3437 -14.2739 -1.27626
LeftHand  -0.0315851 4.92915 1.40202
RightShoulder  -0.74466 -5.99908 23.1633
RightArm  -10.6016 -11.5825 22.619
RightForeArm  10.8686 16.1119 0.214491
RightHand  -0.00736707 4.24731 -0.354626
LeftUpLeg  -0.542003 5.87534 1.98597
LeftLeg  5.37359 -0.244988 0.270417
LeftFoot  -4.26966 -0.0106669 0.528442
LeftToes  1.648e-009 -9.21574e-011 2.55256e-011
